# xmcd CD database file
#
# Track frame offsets:
#	150
#	14201
#	30605
#	49814
#	50668
#	68150
#
# Disc length: 1032 seconds
#
# Revision: 0
# Processed by: cddbd v1.4PL0 Copyright (c) Steve Scherf et al.
# Submitted via: CDex 1.50
#
DISCID=53040606
DTITLE=Art 7 - Demo 98
DYEAR=1998
DGENRE=Nederhop
TTITLE0=Wilskracht
TTITLE1=Dagdromen
TTITLE2=Hardkoor aktie
TTITLE3=Lellekheid
TTITLE4=Nederhop heerst
TTITLE5=Vriendschap
EXTD=YEAR: 1998
EXTT0=
EXTT1=
EXTT2=
EXTT3=
EXTT4=
EXTT5=
PLAYORDER=
